# xmcd
#
# Track frame offsets:
#	150
#	25622
#	46702
#	69467
#	92762
#	111550
#	123435
#	148510
#	170957
#	209262
#	234635
#	260990
#	283180
#	306935
#	331185
#
# Disc length: 4680 seconds
#
# Revision: 1
# Processed by: cddbd v1.5.2PL0 Copyright (c) Steve Scherf et al.
# Submitted via: audiograbber 1.80.04
#
DISCID=e512460f
DTITLE=Various Artist - Blues Story #10
DYEAR=1998
DGENRE=Blues
TTITLE0=Jimmy Thackery - Wild Night Out
TTITLE1=Ten Years After - I'm Going Home
TTITLE2=B.B. King - The Thrill Is Gone
TTITLE3=Albert Collins - Things I Used To Do
TTITLE4=Cream - Crossroads
TTITLE5=John Mayall - Crocodile Walk
TTITLE6=Popa Chubby - Stoop Down Baby
TTITLE7=Willy DeVille - Bamboo Road
TTITLE8=Lynyrd Skynyrd - Freebird
TTITLE9=Roy Rogers and Norton Buffalo - Shake Your Money Maker
TTITLE10=Paul Personne - Loco Loco
TTITLE11=Rory Gallagher - Laundromat
TTITLE12=The Allman Brother Band - It's Not My Cross To Bear
TTITLE13=Goerges Thoroghgood and Jonhnny Johnson - St Louis Blues
TTITLE14=Amos Garett - Walkin' Blues
EXTD=
EXTT0=
EXTT1=
EXTT2=
EXTT3=
EXTT4=
EXTT5=
EXTT6=
EXTT7=
EXTT8=
EXTT9=
EXTT10=
EXTT11=
EXTT12=
EXTT13=
EXTT14=
PLAYORDER=
